<svg width="610" height="706" viewBox="0 0 610 706" fill="none" xmlns="http://www.w3.org/2000/svg">
<path fill-rule="evenodd" clip-rule="evenodd" d="M0 307.539V302.461C0 135.418 135.416 0 302.461 0H307.539C474.582 0 610 135.418 610 302.461V307.539C610 474.584 474.582 610 307.539 610H302.461C135.416 610 0 474.584 0 307.539Z" fill="#E4EBF7"/>
<path fill-rule="evenodd" clip-rule="evenodd" d="M96.2297 316.942C95.9657 319.561 95.1882 322.104 93.9417 324.423C92.6952 326.743 91.004 328.794 88.9647 330.46C86.9255 332.126 84.5781 333.373 82.0565 334.132C79.535 334.891 76.8888 335.145 74.2688 334.881C71.6489 334.617 69.1067 333.84 66.7872 332.593C64.4678 331.347 62.4166 329.656 60.7507 327.616C59.0849 325.577 57.837 323.23 57.0783 320.708C56.3196 318.187 56.0651 315.54 56.3291 312.92C56.867 307.633 59.482 302.776 63.5992 299.416C67.7165 296.056 72.9993 294.468 78.2868 295.001C83.5743 295.534 88.434 298.144 91.798 302.258C95.162 306.372 96.7551 311.654 96.2273 316.942" fill="white"/>
<path d="M117.108 354.903L86.4644 381.039M89.494 325.319L114.889 339.717L89.494 325.319Z" stroke="white" stroke-width="2"/>
<path fill-rule="evenodd" clip-rule="evenodd" d="M96.521 386.024C96.3544 387.829 95.832 389.583 94.9838 391.186C94.1357 392.788 92.9786 394.207 91.5793 395.359C90.1801 396.512 88.5663 397.377 86.8313 397.902C85.0963 398.428 83.2743 398.606 81.4704 398.424C79.6666 398.242 77.9166 397.704 76.3215 396.843C74.7264 395.981 73.3178 394.812 72.1769 393.403C71.036 391.994 70.1854 390.373 69.6742 388.633C69.1631 386.894 69.0015 385.07 69.1987 383.268C69.5926 379.668 71.3929 376.37 74.2073 374.091C77.0218 371.812 80.6227 370.737 84.2259 371.1C87.8291 371.464 91.1428 373.236 93.4456 376.031C95.7484 378.826 96.8538 382.417 96.521 386.024ZM139.434 347.001C139.26 348.814 138.73 350.575 137.873 352.183C137.016 353.79 135.851 355.213 134.443 356.368C133.035 357.524 131.412 358.39 129.669 358.917C127.925 359.444 126.094 359.621 124.282 359.439C122.47 359.256 120.711 358.718 119.108 357.853C117.504 356.989 116.087 355.817 114.938 354.404C113.789 352.99 112.93 351.364 112.411 349.618C111.893 347.872 111.724 346.041 111.915 344.229C112.29 340.585 114.095 337.239 116.934 334.925C119.773 332.61 123.415 331.517 127.059 331.884C130.704 332.252 134.054 334.05 136.374 336.884C138.694 339.719 139.795 343.358 139.434 347.004V347.001ZM239.813 65.0522L312.063 65.0209C313.523 65.0203 314.968 64.7321 316.316 64.173C317.664 63.6138 318.889 62.7945 319.921 61.7619C320.953 60.7294 321.771 59.5037 322.329 58.1549C322.887 56.8061 323.174 55.3606 323.173 53.9009C323.173 52.4412 322.884 50.996 322.325 49.6477C321.766 48.2994 320.947 47.0744 319.914 46.0427C318.882 45.011 317.656 44.1928 316.307 43.6348C314.958 43.0768 313.513 42.7899 312.053 42.7905L239.803 42.8218C236.895 42.8836 234.128 44.0824 232.093 46.1612C230.059 48.24 228.92 51.0332 228.922 53.9417C228.923 56.8502 230.064 59.6424 232.1 61.7195C234.136 63.7965 236.905 64.993 239.813 65.0522ZM267.448 109.479L339.696 109.448C341.175 109.478 342.645 109.213 344.02 108.667C345.396 108.122 346.648 107.308 347.705 106.272C348.761 105.236 349.6 104 350.173 102.636C350.746 101.272 351.04 99.8073 351.04 98.3279C351.039 96.8484 350.743 95.384 350.169 94.0204C349.595 92.6568 348.755 91.4214 347.698 90.3867C346.64 89.3519 345.387 88.5386 344.011 87.9945C342.636 87.4503 341.165 87.1862 339.686 87.2176L267.436 87.2489C264.488 87.2502 261.661 88.4224 259.578 90.5079C257.494 92.5933 256.324 95.421 256.326 98.3689C256.327 101.317 257.499 104.144 259.585 106.227C261.67 108.311 264.498 109.481 267.446 109.479" fill="white"/>
<path fill-rule="evenodd" clip-rule="evenodd" d="M273.199 65.0228V65.0179L311.437 65.0011C308.489 65.0027 305.663 66.1753 303.579 68.2609C301.496 70.3465 300.326 73.1744 300.328 76.1223C300.33 79.0702 301.502 81.8968 303.588 83.9802C305.674 86.0635 308.501 87.2331 311.449 87.2315L273.207 87.2483V87.2435C276.113 87.1818 278.88 85.9834 280.913 83.9055C282.947 81.8277 284.085 79.0357 284.083 76.1284C284.082 73.2212 282.942 70.4302 280.907 68.354C278.871 66.2779 276.104 65.082 273.197 65.0228H273.199ZM361.363 167.704H351.788C348.744 167.695 345.827 166.481 343.674 164.328C341.522 162.175 340.309 159.258 340.3 156.214C340.309 153.169 341.522 150.252 343.674 148.1C345.827 145.947 348.744 144.734 351.788 144.725H361.363C364.407 144.734 367.324 145.947 369.477 148.1C371.63 150.252 372.844 153.169 372.854 156.214C372.845 159.258 371.631 162.176 369.478 164.329C367.325 166.482 364.408 167.695 361.363 167.704Z" fill="white"/>
<path fill-rule="evenodd" clip-rule="evenodd" d="M413.149 71.7914C413.149 32.3456 445.127 0.369263 484.573 0.369263C524.019 0.369263 555.995 32.3456 555.995 71.7914C555.995 111.24 524.019 143.216 484.573 143.216C445.127 143.216 413.151 111.24 413.151 71.7938" fill="#FF603B"/>
<path fill-rule="evenodd" clip-rule="evenodd" d="M489.841 45.8034L488.214 81.9838C488.18 82.9265 487.781 83.8191 487.102 84.4739C486.423 85.1288 485.517 85.4947 484.573 85.4947C483.63 85.4947 482.724 85.1288 482.044 84.4739C481.365 83.8191 480.967 82.9265 480.933 81.9838L479.308 45.8034C479.282 45.0954 479.399 44.3894 479.652 43.7276C479.905 43.0657 480.288 42.4617 480.78 41.9515C481.271 41.4414 481.861 41.0356 482.513 40.7584C483.165 40.4812 483.866 40.3384 484.575 40.3384C485.283 40.3384 485.984 40.4812 486.636 40.7584C487.288 41.0356 487.878 41.4414 488.369 41.9515C488.861 42.4617 489.245 43.0657 489.498 43.7276C489.75 44.3894 489.867 45.0954 489.841 45.8034ZM489.206 92.4348C490.44 93.5826 491.059 95.0818 491.059 96.9348C491.059 98.7877 490.44 100.287 489.206 101.524C487.882 102.669 486.294 103.288 484.53 103.288C483.693 103.303 482.862 103.146 482.088 102.827C481.314 102.509 480.614 102.035 480.03 101.435C478.707 100.198 478.091 98.7011 478.091 96.9348C478.091 95.0818 478.707 93.5826 480.03 92.4348C481.265 91.2003 482.766 90.6709 484.53 90.6709C486.383 90.6709 487.971 91.2003 489.206 92.4348Z" fill="white"/>
<path fill-rule="evenodd" clip-rule="evenodd" d="M287.084 319.748C297.735 318.309 295.776 316.851 296.9 308.25C298.524 295.785 289.421 267.498 277.018 247.806C274.4 222.01 246.703 220.758 246.703 220.758C246.703 220.758 257.079 232.538 256.8 259.74C260.164 272.356 258.735 294.512 258.735 294.512C258.735 294.512 271.38 321.871 287.082 319.748" fill="#FFB594"/>
<path fill-rule="evenodd" clip-rule="evenodd" d="M242.912 219.485C242.912 219.485 246.433 218.082 250.639 220.885C270.083 224.249 275.589 237.023 277.832 248.241C282.317 251.326 282.317 253.848 282.317 256.654C283.196 258.524 285.963 263.945 285.963 263.945C285.963 263.945 268.577 268.152 259.603 280.208C256.237 264.783 242.912 219.482 242.912 219.482" fill="white"/>
<path fill-rule="evenodd" clip-rule="evenodd" d="M226.221 216.815L228.673 202.822L206.462 174.248L193.87 187.678L187.63 211.412C187.63 211.412 207.82 223.753 226.221 216.817" fill="#FFB594"/>
<path fill-rule="evenodd" clip-rule="evenodd" d="M199.565 187.254C199.565 187.254 188.599 180.353 193.682 170.669C197.609 163.193 204.6 173.41 204.6 173.41C204.6 173.41 205.861 164.598 212.153 164.598C213.412 162.081 215.929 154.53 215.929 154.53C215.929 154.53 243.619 160.822 248.656 162.081C248.654 174.666 243.08 209.076 229.684 210.134C208.171 211.833 199.565 187.254 199.565 187.254Z" fill="#FFC6A0"/>
<path fill-rule="evenodd" clip-rule="evenodd" d="M247.79 172.882C254.085 167.845 256.186 149.359 256.186 149.359C256.186 149.359 250.189 148.175 240.121 144.397C228.791 139.363 209.157 132.916 197.828 146.76C174.871 157.373 192.866 194.72 192.866 194.72L199.433 187.412C199.433 187.412 189.913 179.461 194.399 172.307C199.652 163.933 203.887 174.906 203.887 174.906C203.887 174.906 205.428 169.13 212.551 166.82C213.407 165.102 215.053 160.347 216.016 157.503C216.222 156.89 216.65 156.376 217.215 156.061C217.78 155.746 218.442 155.654 219.072 155.801C224.871 157.149 240.063 160.686 246.546 162.241C247.807 162.544 248.654 163.73 248.531 165.023L247.79 172.882Z" fill="#520038"/>
<path fill-rule="evenodd" clip-rule="evenodd" d="M243.576 183.158C243.326 184.633 242.168 185.67 240.987 185.468C239.808 185.271 239.05 183.914 239.298 182.436C239.548 180.961 240.705 179.924 241.887 180.123C243.068 180.323 243.824 181.68 243.576 183.156V183.158ZM226.828 179.693C226.577 181.168 225.42 182.205 224.238 182.003C223.059 181.806 222.301 180.448 222.549 178.971C222.799 177.496 223.957 176.459 225.138 176.661C226.32 176.858 227.075 178.215 226.828 179.693Z" fill="#552950"/>
<path d="M238.73 176.254L236.564 180.152L235.842 190.692H230.452" stroke="#DB836E" stroke-width="1.063" stroke-linecap="round" stroke-linejoin="round"/>
<path d="M240.463 175.387C240.463 175.387 244.794 173.654 246.527 176.686" stroke="#5C2552" stroke-width="1.117" stroke-linecap="round" stroke-linejoin="round"/>
<path d="M195.802 174.905C195.802 174.905 196.957 172.21 198.497 173.173C200.037 174.135 201.577 176.638 199.845 177.985C198.112 179.333 200.23 182.028 200.23 182.028" stroke="#DB836E" stroke-width="1.117" stroke-linecap="round" stroke-linejoin="round"/>
<path d="M222.174 171.633C222.174 171.633 226.602 174.328 232.184 173.943" stroke="#5C2552" stroke-width="1.117" stroke-linecap="round" stroke-linejoin="round"/>
<path d="M201.385 191.653C201.385 191.653 205.683 207.407 223.673 210.793M223.137 193C223.137 193 228.527 195.888 233.725 195.888L223.137 193ZM225.447 199.161C225.447 199.161 227.757 200.123 229.104 199.931L225.447 199.161Z" stroke="#DB836E" stroke-width="1.063" stroke-linecap="round" stroke-linejoin="round"/>
<path d="M229.927 219.613C229.927 219.613 227.357 226.401 209.959 224.678C192.561 222.953 185.197 212.54 185.197 212.54" stroke="#E4EBF7" stroke-width="1.136" stroke-linecap="round" stroke-linejoin="round"/>
<path fill-rule="evenodd" clip-rule="evenodd" d="M188.003 209.544C188.003 209.544 203.707 221.508 227.636 215.526C227.636 215.526 250.683 217.98 255.397 228.333C268.295 256.656 256.703 316.973 255.397 324.498C263.809 334.256 254.275 344.911 254.275 344.911C216.678 336.373 168.102 343.467 168.102 343.467C156.433 334.934 165.159 321.704 165.159 321.704L150.112 264.511C144.132 227.868 152.116 216.857 158.652 214.595C165.943 212.07 177.999 211.51 177.999 211.51C179.193 211.37 180.598 211.327 181.296 210.949C186.975 207.864 188.003 209.546 188.003 209.546" fill="white"/>
<path fill-rule="evenodd" clip-rule="evenodd" d="M158.409 215.156C158.409 215.156 141.865 216.275 140.145 234.782C139.023 256.096 147.436 261.142 147.436 261.142C147.436 261.142 162.055 314.328 187.854 316.386C208.044 311.149 199.304 300.258 199.07 288.905C198.51 261.703 181.965 248.244 181.965 248.244C181.965 248.244 171.83 215.156 158.409 215.156Z" fill="#FFC6A0"/>
<path fill-rule="evenodd" clip-rule="evenodd" d="M172.578 297.97C172.578 297.97 174.635 325.076 196.228 313.578C207.695 307.476 214.471 280.302 219.784 259.27C223.288 245.39 225.993 229.919 225.993 229.919L214.026 225.807C214.026 225.807 208.231 239.081 195.331 255.346C184.899 268.501 173.326 282.081 172.578 297.97Z" fill="#FFC6A0"/>
<path d="M261.006 252.168C261.006 252.168 265.21 258.723 255.397 325.648C261.114 330.98 257.93 340.115 254.836 343.72" stroke="#E4EBF7" stroke-width="1.085" stroke-linecap="round" stroke-linejoin="round"/>
<path fill-rule="evenodd" clip-rule="evenodd" d="M296.619 315.543C296.619 315.543 295.591 322.117 268.295 320.31C231.749 317.889 207.35 312.489 207.35 312.489L209.596 298.532C209.596 298.532 211.335 299.049 232.962 298.368C261.567 297.471 277.995 283.761 293.035 295.909C302.755 303.761 296.619 315.545 296.619 315.545" fill="#FFC6A0"/>
<path fill-rule="evenodd" clip-rule="evenodd" d="M169.026 217.956C169.026 217.956 155.567 206.552 142.426 224.405C134.441 241.787 143.67 261.185 148.836 271.518C148.09 280.491 154.443 281.892 154.443 281.892C154.443 281.892 154.703 284.046 158.091 288.341C167.905 271.424 174.262 266.284 191.086 258.15C190.296 256.572 186.569 250.293 186.694 249.085C187.115 245.019 183.609 242.773 183.609 242.773C183.609 242.773 182.921 242.398 180.805 236.185C178.909 230.619 175.906 223.727 169.026 217.956Z" fill="white"/>
<path fill-rule="evenodd" clip-rule="evenodd" d="M217.135 692.146C217.135 692.146 228.818 697.7 237.14 694.925C244.811 692.367 249.46 696.742 256.396 698.128C263.329 699.517 275.091 701.119 288.177 694.701C287.896 679.714 269.441 683.875 255.647 676.442C248.681 672.688 245.357 663.601 245.863 652.512H220.292C220.292 652.512 216.507 681.124 217.135 692.146Z" fill="#CBD1D1"/>
<path fill-rule="evenodd" clip-rule="evenodd" d="M217.075 691.678C217.075 691.678 223.68 695.136 235.457 693.454C243.774 692.265 243.213 695.042 253.308 696.539C263.403 698.034 284.813 696.072 287.802 693.83C288.923 696.818 286.868 699.436 286.868 699.436C286.868 699.436 282.755 701.078 273.782 701.679C268.259 702.05 254.295 702.343 249.381 700.185C244.52 696.445 237.604 696.539 234.798 699.622C224.145 702.209 217.51 698.876 217.51 698.876L217.075 691.678Z" fill="#2B0849"/>
<path fill-rule="evenodd" clip-rule="evenodd" d="M236.86 654.195H245.273C245.273 654.195 244.991 672.421 257.611 677.467C244.991 679.152 234.336 671.206 236.86 654.195Z" fill="#A4AABA"/>
<path fill-rule="evenodd" clip-rule="evenodd" d="M106.905 653.688C106.905 653.688 101.591 672.395 95.5896 684.728C91.056 694.05 84.9341 703.628 109.376 703.628C126.149 703.628 131.96 702.417 128.103 686.983C124.243 671.545 128.774 653.688 128.774 653.688H106.905Z" fill="#CBD1D1"/>
<path fill-rule="evenodd" clip-rule="evenodd" d="M91.602 697.561C91.602 697.561 96.8913 700.509 108.336 700.509C123.679 700.509 129.142 696.346 129.142 696.346C129.142 696.346 130.658 699.156 127.58 701.808C125.078 703.967 118.508 705.822 108.943 705.709C98.4819 705.589 94.2274 704.282 91.9485 702.764C89.8694 701.375 90.2159 698.776 91.602 697.561Z" fill="#2B0849"/>
<path fill-rule="evenodd" clip-rule="evenodd" d="M109.116 658.489C109.116 658.489 109.2 662.32 108.324 665.877C107.446 669.462 105.605 673.709 105.475 676.32C105.328 679.222 116.917 680.308 118.477 676.407C120.041 672.504 121.742 660.195 123.304 658.114C124.863 656.032 110.935 652.766 109.116 658.489Z" fill="#A4AABA"/>
<path fill-rule="evenodd" clip-rule="evenodd" d="M215.316 666.983L248.762 667.211C248.762 667.211 252.008 530.905 253.395 506.201C254.781 481.494 262.835 397.787 255.902 348.377L224.53 346.767L167.409 348.716C167.409 348.716 166.321 358.63 164.418 373.658C164.261 374.898 162.714 375.762 162.548 377.068C162.36 378.531 163.604 380.454 163.347 381.987C157.439 417.186 149.397 460.763 143.479 494.696C143.188 496.364 140.394 497.218 139.834 501.424C139.733 502.18 140.363 505.236 140.113 505.912C122.931 552.772 110.75 632.492 102.429 667.599L138.948 667.563C138.948 667.563 144.44 643.15 149.019 622.151C156.051 589.932 206.802 409.617 206.802 409.617L214.341 407.322L213.961 524.196C213.961 524.196 213.4 527.281 214.803 529.245C216.206 531.206 213.405 532.053 213.821 534.854L214.803 539.34C214.803 539.34 213.682 557.287 212.56 569.063C211.436 580.843 215.316 666.98 215.316 666.98" fill="#7BB2F9"/>
<path d="M231.073 534.544C231.073 534.544 238.006 531.771 246.33 524.836M155.382 525.753C158.262 525.991 165.477 520.707 172.768 513.415L155.382 525.753Z" stroke="#648BD8" stroke-width="1.085" stroke-linecap="round" stroke-linejoin="round"/>
<path d="M233.356 526.935C233.356 526.935 240.291 524.16 248.613 517.227" stroke="#648BD8" stroke-width="1.032" stroke-linecap="round" stroke-linejoin="round"/>
<path d="M106.464 657.733H139.74M152.017 533.604C152.017 533.604 158.572 532.126 168.282 525.191L152.017 533.604ZM180.247 350.77C179.571 358.533 180.993 372.081 169.404 373.578L180.247 350.77ZM224.234 346.385C224.234 346.385 224.51 381.415 220.999 384.046C215.453 388.209 213.523 388.906 213.523 388.906L224.234 346.385ZM214.644 347.779C214.644 347.779 215.291 379.408 212.214 408.151L214.644 347.779ZM200.995 409.833C200.995 409.833 217.383 407.303 222.932 407.303L200.995 409.833ZM110.757 648.873L108.611 659.793L110.757 648.873ZM112.949 632.615L110.988 642.619L112.949 632.615ZM150.942 486.339C150.148 490.233 150.696 490.921 149.861 494.613C149.861 494.613 143.229 499.192 144.351 504.053C145.472 508.914 143.605 512.293 133.51 545.568C129.27 559.542 123.323 591.102 118.674 613.617C118.602 613.963 117.42 619.984 115.931 627.574L150.942 486.339ZM154.39 466.205C153.68 470.195 152.946 474.17 152.183 478.088L154.39 466.205ZM171.649 352.264L168.655 378.439C168.655 378.439 165.912 378.812 167.406 384.046C167.688 387.412 160.721 423.487 154.455 460.124L171.649 352.264Z" stroke="#648BD8" stroke-width="1.085" stroke-linecap="round" stroke-linejoin="round"/>
<path fill-rule="evenodd" clip-rule="evenodd" d="M255.512 341.025C248.226 339.849 210.212 334.422 168.355 341.507C167.994 341.569 167.668 341.761 167.439 342.046C167.209 342.331 167.092 342.691 167.108 343.056C167.26 346.202 167.214 348.695 167.144 350.264C167.134 350.484 167.174 350.704 167.26 350.907C167.346 351.111 167.476 351.292 167.641 351.439C167.807 351.585 168.002 351.693 168.214 351.755C168.426 351.816 168.649 351.83 168.867 351.794C176.816 350.509 209.865 345.99 254.689 351.154C255.524 351.25 256.277 350.639 256.354 349.806C256.653 346.565 256.74 343.971 256.764 342.517C256.77 342.16 256.647 341.811 256.417 341.537C256.187 341.263 255.866 341.081 255.512 341.025Z" fill="#192064"/>
<path fill-rule="evenodd" clip-rule="evenodd" d="M231.973 348.599L231.98 336.321C231.983 335.795 231.781 335.289 231.418 334.909C231.055 334.528 230.558 334.304 230.033 334.283C223.505 334.039 216.971 334.027 210.443 334.249C209.914 334.268 209.413 334.491 209.045 334.871C208.677 335.251 208.471 335.758 208.469 336.287L208.462 348.553C208.462 349.698 209.396 350.615 210.541 350.586C216.504 350.432 222.973 350.425 229.865 350.627C230.137 350.636 230.409 350.59 230.663 350.493C230.918 350.395 231.15 350.247 231.347 350.058C231.544 349.869 231.7 349.642 231.808 349.392C231.915 349.141 231.971 348.871 231.973 348.599Z" fill="white"/>
<path fill-rule="evenodd" clip-rule="evenodd" d="M229.183 346.269L229.188 338.58C229.192 338.162 229.032 337.76 228.743 337.458C228.454 337.156 228.059 336.978 227.641 336.963C223.069 336.816 218.157 336.788 212.976 336.939C212.556 336.952 212.156 337.128 211.863 337.43C211.569 337.731 211.404 338.135 211.403 338.556L211.398 346.237C211.398 347.142 212.132 347.867 213.034 347.847C217.508 347.746 222.356 347.744 227.521 347.876C228.425 347.9 229.181 347.176 229.183 346.269Z" fill="#192064"/>
<path d="M217.636 409.097L219.878 520.706C219.878 520.706 221.563 524.631 219.318 527.435C217.075 530.24 225.488 529.119 221.56 533.042C217.638 536.971 223.806 535.847 221.56 541.457C220.073 545.177 219.079 594.208 218.822 629.322M216.822 657.241H247.67H216.822ZM219.503 648.19C219.517 656.659 219.33 661.546 219.503 663.332V648.19ZM218.798 633.061C218.776 636.909 218.759 639.217 218.759 643.902L218.798 633.061Z" stroke="#648BD8" stroke-width="1.085" stroke-linecap="round" stroke-linejoin="round"/>
<path d="M186.732 215.712C186.732 215.712 205.24 230.481 226.551 222.258M177.438 236.463L182.766 246.839C182.766 246.839 187.815 248.803 187.254 253.288L189.218 258.616L177.438 236.463ZM154.724 279.648C155.285 277.405 159.961 262.45 185.009 254.41L154.724 279.648Z" stroke="#E4EBF7" stroke-width="1.085" stroke-linecap="round" stroke-linejoin="round"/>
<path fill-rule="evenodd" clip-rule="evenodd" d="M221.327 208.281C221.327 208.281 234.504 206.317 239.553 197.344C242.674 196.514 241.286 202.667 238.759 206.178C237.075 208.514 236.329 209.917 236.329 209.917C236.329 209.917 236.795 210.663 236.702 211.881C236.574 213.558 236.28 213.452 236.047 214.403C235.852 215.209 236.307 215.984 236.047 216.927C235.936 217.336 235.571 218.13 235.128 219.04C234.839 219.639 234.954 220.693 234.646 221.321C234.091 222.45 230.888 225.821 228.337 228.192C219.13 236.744 216.262 232.148 213.896 227.21C211.745 222.722 212.305 214.872 211.793 210.666C210.951 203.653 205.483 203.374 207.165 200.008C207.991 198.359 214.072 201.668 215.017 204.214C216.839 209.123 222.121 208.563 221.327 208.281Z" fill="#FFC6A0"/>
<path d="M240.16 197.394C239.041 197.579 239.317 198.048 237.825 200.385C236.329 202.722 226.234 207.441 222.448 208.143C216.218 209.298 216.967 204.389 212.212 201.273C208.145 198.609 203.64 199.738 208.847 204.637C211.23 206.88 211.09 207.301 212.212 212.35C213.018 215.974 210.671 221.181 213.896 225.809" stroke="#DB836E" stroke-width="0.774" stroke-linecap="round" stroke-linejoin="round"/>
<path d="M191.413 260.546C186.359 267.587 181.147 275.405 178.041 281.631" stroke="#E59788" stroke-width="0.774" stroke-linecap="round" stroke-linejoin="round"/>
<path fill-rule="evenodd" clip-rule="evenodd" d="M211.09 299.277C211.09 299.277 206.041 294.604 198.752 292.734C191.461 290.865 190.152 292.361 185.478 292.922C180.805 293.483 176.13 290.679 176.69 294.607C177.251 298.529 188.843 297.037 189.218 299.653C189.591 302.269 173.889 306.381 169.214 304.887C167.344 306.757 170.335 309.372 174.075 310.121C174.635 313.86 179.496 313.86 179.496 313.86C179.496 313.86 181.178 316.291 185.851 316.478C191.834 319.655 207.35 314.794 212.211 312.739C217.072 310.681 211.09 299.277 211.09 299.277Z" fill="#FFC6A0"/>
<path d="M189.779 259.177C189.779 259.177 169.589 265.814 158.091 288.342M176.691 294.604C176.691 294.604 178.279 297.316 184.312 298.016C189.882 298.666 190.479 299.419 190.479 299.419C190.479 299.419 184.355 306.383 168.653 304.886L176.691 294.604ZM174.262 310.12C174.262 310.12 183.469 310.354 186.133 308.393L174.262 310.12ZM180.433 313.672C180.433 313.672 185.151 314 188.518 312.457L180.433 313.672ZM185.852 316.478C185.852 316.478 190.058 316.524 192.864 315.263L185.852 316.478ZM176.457 293.389C176.457 293.389 175.025 290.905 179.494 292.361C183.515 293.67 186.311 292.493 191.834 292.734C195.177 292.881 199.215 292.019 201.416 293.095C205.281 294.982 210.156 298.343 210.156 298.343C210.156 298.343 235.486 301.241 255.958 295.631L176.457 293.389Z" stroke="#E59788" stroke-width="0.774" stroke-linecap="round" stroke-linejoin="round"/>
<path d="M262.968 269.835C262.968 269.835 271.101 261.141 281.196 258.617" stroke="#E4EBF7" stroke-width="1.085" stroke-linecap="round" stroke-linejoin="round"/>
<path d="M258.388 295.039C258.388 295.039 281.723 288.434 285.929 292.922" stroke="#E59788" stroke-width="0.774" stroke-linecap="round" stroke-linejoin="round"/>
<path d="M319.992 408.219L310.475 398.702M468.299 200.346L477.855 190.995L468.299 200.346ZM450.397 217.858L459.388 209.062L450.397 217.858ZM461.433 201.672L450.696 190.699L461.433 201.672ZM477.559 218.156L467.613 207.989L477.559 218.156ZM311.042 391.458L319.989 382.511L311.042 391.458ZM294.282 408.219L302.699 399.801L294.282 408.219ZM304.557 392.787L294.282 382.511L304.557 392.787Z" stroke="#BFCDDD" stroke-width="2" stroke-linecap="round" stroke-linejoin="round"/>
<path fill-rule="evenodd" clip-rule="evenodd" d="M457.593 508.662H453.733C451.175 508.654 448.725 507.635 446.916 505.826C445.108 504.018 444.088 501.567 444.081 499.01V421.793C444.089 419.236 445.108 416.786 446.916 414.978C448.724 413.171 451.174 412.151 453.73 412.143H457.593C460.15 412.151 462.6 413.17 464.408 414.978C466.217 416.786 467.237 419.236 467.245 421.793V499.01C467.237 501.566 466.217 504.016 464.409 505.824C462.601 507.632 460.152 508.651 457.595 508.659" fill="#A3B4C6"/>
<path fill-rule="evenodd" clip-rule="evenodd" d="M572.301 511.546C572.301 514.618 571.081 517.564 568.909 519.736C566.737 521.908 563.791 523.128 560.719 523.128H352.238C349.166 523.128 346.22 521.908 344.048 519.736C341.876 517.564 340.656 514.618 340.656 511.546C340.656 508.474 341.876 505.528 344.048 503.356C346.22 501.184 349.166 499.964 352.238 499.964H560.719C563.791 499.964 566.737 501.184 568.909 503.356C571.081 505.528 572.301 508.474 572.301 511.546Z" fill="#A3B4C6"/>
<path fill-rule="evenodd" clip-rule="evenodd" d="M370.822 456.483H540.505V252.86H370.822V456.483Z" fill="#A3B4C6"/>
<path fill-rule="evenodd" clip-rule="evenodd" d="M541.268 456.483H370.057C368.012 456.476 366.052 455.66 364.605 454.214C363.159 452.767 362.344 450.807 362.338 448.761V403.119C362.343 401.073 363.158 399.112 364.605 397.665C366.051 396.218 368.011 395.401 370.057 395.394H541.268C543.315 395.401 545.276 396.217 546.723 397.664C548.169 399.111 548.985 401.072 548.99 403.119V448.761C548.984 450.808 548.168 452.769 546.721 454.215C545.273 455.662 543.312 456.478 541.266 456.483H541.268ZM541.268 313.87H370.057C368.012 313.864 366.052 313.048 364.606 311.602C363.159 310.156 362.344 308.196 362.338 306.15V260.506C362.344 258.46 363.159 256.5 364.605 255.053C366.052 253.606 368.012 252.79 370.057 252.783H541.268C543.315 252.79 545.276 253.606 546.723 255.053C548.169 256.5 548.985 258.462 548.99 260.508V306.15C548.984 308.197 548.168 310.157 546.721 311.604C545.273 313.05 543.312 313.865 541.266 313.87" fill="#BFCDDD"/>
<path fill-rule="evenodd" clip-rule="evenodd" d="M383.973 289.118C383.203 289.134 382.437 288.996 381.721 288.712C381.004 288.428 380.352 288.004 379.802 287.465C379.251 286.925 378.814 286.282 378.515 285.571C378.217 284.861 378.063 284.098 378.063 283.327C378.063 282.557 378.217 281.794 378.515 281.084C378.814 280.373 379.251 279.729 379.802 279.19C380.352 278.651 381.004 278.227 381.721 277.943C382.437 277.659 383.203 277.521 383.973 277.536C385.489 277.567 386.932 278.191 387.993 279.274C389.053 280.356 389.648 281.812 389.648 283.327C389.648 284.843 389.053 286.298 387.993 287.381C386.932 288.464 385.489 289.087 383.973 289.118ZM401.822 289.118C401.051 289.134 400.285 288.996 399.569 288.712C398.853 288.428 398.2 288.004 397.65 287.465C397.099 286.925 396.662 286.282 396.364 285.571C396.065 284.861 395.911 284.098 395.911 283.327C395.911 282.557 396.065 281.794 396.364 281.084C396.662 280.373 397.099 279.729 397.65 279.19C398.2 278.651 398.853 278.227 399.569 277.943C400.285 277.659 401.051 277.521 401.822 277.536C403.337 277.567 404.78 278.191 405.841 279.274C406.902 280.356 407.496 281.812 407.496 283.327C407.496 284.843 406.902 286.298 405.841 287.381C404.78 288.464 403.337 289.087 401.822 289.118ZM419.67 289.118C418.9 289.134 418.134 288.996 417.417 288.712C416.701 288.428 416.049 288.004 415.498 287.465C414.948 286.925 414.511 286.282 414.212 285.571C413.913 284.861 413.76 284.098 413.76 283.327C413.76 282.557 413.913 281.794 414.212 281.084C414.511 280.373 414.948 279.729 415.498 279.19C416.049 278.651 416.701 278.227 417.417 277.943C418.134 277.659 418.9 277.521 419.67 277.536C421.185 277.567 422.628 278.191 423.689 279.274C424.75 280.356 425.344 281.812 425.344 283.327C425.344 284.843 424.75 286.298 423.689 287.381C422.628 288.464 421.185 289.087 419.67 289.118ZM535.519 289.118H481.469C480.957 289.118 480.466 288.915 480.104 288.553C479.742 288.191 479.539 287.7 479.539 287.188V279.469C479.539 278.403 480.403 277.536 481.469 277.536H535.517C536.585 277.536 537.449 278.403 537.449 279.469V287.188C537.449 288.254 536.583 289.118 535.519 289.118Z" fill="white"/>
<path fill-rule="evenodd" clip-rule="evenodd" d="M541.268 385.178H370.057C368.011 385.172 366.051 384.356 364.605 382.909C363.158 381.462 362.343 379.502 362.338 377.456V331.814C362.344 329.768 363.159 327.808 364.605 326.361C366.052 324.914 368.012 324.099 370.057 324.092H541.268C543.314 324.098 545.275 324.914 546.722 326.36C548.168 327.807 548.984 329.768 548.99 331.814V377.456C548.985 379.503 548.169 381.464 546.721 382.911C545.274 384.358 543.313 385.173 541.266 385.178" fill="#BFCDDD"/>
<path d="M374.365 385.536H390.61M417.403 313.871H536.042H417.403ZM397.019 313.871H411.671H397.019ZM375.284 313.871H391.527H375.284ZM418.323 385.536H536.958H418.323ZM397.936 385.536H412.588H397.936Z" stroke="#7C90A5" stroke-width="1.124" stroke-linecap="round" stroke-linejoin="round"/>
<path fill-rule="evenodd" clip-rule="evenodd" d="M383.973 362.496C382.437 362.496 380.964 361.885 379.878 360.799C378.791 359.713 378.181 358.24 378.181 356.703C378.181 355.167 378.791 353.694 379.878 352.608C380.964 351.521 382.437 350.911 383.973 350.911C385.51 350.911 386.983 351.521 388.069 352.608C389.155 353.694 389.766 355.167 389.766 356.703C389.766 358.24 389.155 359.713 388.069 360.799C386.983 361.885 385.51 362.496 383.973 362.496ZM401.822 362.496C400.285 362.496 398.812 361.885 397.726 360.799C396.64 359.713 396.029 358.24 396.029 356.703C396.029 355.167 396.64 353.694 397.726 352.608C398.812 351.521 400.285 350.911 401.822 350.911C403.358 350.911 404.831 351.521 405.917 352.608C407.004 353.694 407.614 355.167 407.614 356.703C407.614 358.24 407.004 359.713 405.917 360.799C404.831 361.885 403.358 362.496 401.822 362.496ZM419.67 362.496C418.909 362.495 418.156 362.345 417.454 362.054C416.751 361.763 416.112 361.336 415.575 360.798C415.037 360.26 414.61 359.622 414.319 358.919C414.028 358.216 413.879 357.463 413.879 356.702C413.879 355.941 414.029 355.188 414.32 354.486C414.612 353.783 415.038 353.145 415.576 352.607C416.114 352.069 416.753 351.643 417.456 351.352C418.159 351.061 418.912 350.911 419.672 350.911C421.209 350.911 422.682 351.521 423.768 352.608C424.854 353.694 425.465 355.167 425.465 356.703C425.465 358.24 424.854 359.713 423.768 360.799C422.682 361.885 421.209 362.496 419.672 362.496H419.67ZM535.519 362.496H481.469C480.957 362.496 480.466 362.292 480.104 361.93C479.742 361.568 479.539 361.077 479.539 360.566V352.843C479.539 351.777 480.403 350.914 481.469 350.914H535.517C536.585 350.914 537.449 351.78 537.449 352.843V360.566C537.449 361.632 536.583 362.496 535.519 362.496ZM383.973 432.159C383.203 432.174 382.437 432.036 381.721 431.752C381.004 431.468 380.352 431.044 379.802 430.505C379.251 429.966 378.814 429.322 378.515 428.611C378.217 427.901 378.063 427.138 378.063 426.368C378.063 425.597 378.217 424.834 378.515 424.124C378.814 423.413 379.251 422.77 379.802 422.23C380.352 421.691 381.004 421.267 381.721 420.983C382.437 420.699 383.203 420.561 383.973 420.577C385.489 420.607 386.932 421.231 387.993 422.314C389.053 423.397 389.648 424.852 389.648 426.368C389.648 427.883 389.053 429.339 387.993 430.421C386.932 431.504 385.489 432.128 383.973 432.159ZM401.822 432.159C401.051 432.174 400.285 432.036 399.569 431.752C398.853 431.468 398.2 431.044 397.65 430.505C397.099 429.966 396.662 429.322 396.364 428.611C396.065 427.901 395.911 427.138 395.911 426.368C395.911 425.597 396.065 424.834 396.364 424.124C396.662 423.413 397.099 422.77 397.65 422.23C398.2 421.691 398.853 421.267 399.569 420.983C400.285 420.699 401.051 420.561 401.822 420.577C403.337 420.607 404.78 421.231 405.841 422.314C406.902 423.397 407.496 424.852 407.496 426.368C407.496 427.883 406.902 429.339 405.841 430.421C404.78 431.504 403.337 432.128 401.822 432.159ZM419.67 432.159C418.9 432.174 418.134 432.036 417.417 431.752C416.701 431.468 416.049 431.044 415.498 430.505C414.948 429.966 414.511 429.322 414.212 428.611C413.913 427.901 413.76 427.138 413.76 426.368C413.76 425.597 413.913 424.834 414.212 424.124C414.511 423.413 414.948 422.77 415.498 422.23C416.049 421.691 416.701 421.267 417.417 420.983C418.134 420.699 418.9 420.561 419.67 420.577C421.185 420.607 422.628 421.231 423.689 422.314C424.75 423.397 425.344 424.852 425.344 426.368C425.344 427.883 424.75 429.339 423.689 430.421C422.628 431.504 421.185 432.128 419.67 432.159ZM535.519 432.159H481.469C480.957 432.159 480.466 431.955 480.104 431.593C479.742 431.231 479.539 430.741 479.539 430.229V422.507C479.539 421.441 480.403 420.577 481.469 420.577H535.517C536.585 420.577 537.449 421.443 537.449 422.507V430.229C537.449 431.295 536.583 432.159 535.519 432.159Z" fill="white"/>
<path fill-rule="evenodd" clip-rule="evenodd" d="M488.597 531.11H422.729C421.194 531.106 419.723 530.494 418.639 529.409C417.554 528.323 416.943 526.852 416.939 525.318V497.769C416.943 496.235 417.555 494.765 418.639 493.679C419.724 492.594 421.194 491.982 422.729 491.977H488.597C490.132 491.981 491.602 492.593 492.688 493.678C493.773 494.764 494.385 496.234 494.389 497.769V525.315C494.385 526.85 493.774 528.321 492.688 529.407C491.603 530.492 490.132 531.104 488.597 531.108" fill="#BFCDDD"/>
<path d="M483.808 497.684V525.406M426.557 497.684V525.406V497.684Z" stroke="#A3B4C6" stroke-width="1.124" stroke-linecap="round" stroke-linejoin="round"/>
<path fill-rule="evenodd" clip-rule="evenodd" d="M391.939 643.697C385.925 643.697 380.158 641.309 375.906 637.056C371.654 632.804 369.265 627.037 369.265 621.024V585.361C369.327 579.388 371.743 573.68 375.988 569.478C380.234 565.276 385.966 562.919 391.94 562.919C397.913 562.919 403.645 565.276 407.891 569.478C412.137 573.68 414.553 579.388 414.614 585.361V621.024C414.613 627.038 412.224 632.805 407.972 637.057C403.719 641.309 397.952 643.697 391.939 643.697Z" fill="#5BA02E"/>
<path fill-rule="evenodd" clip-rule="evenodd" d="M412.025 643.545C409.048 643.545 406.099 642.958 403.348 641.818C400.597 640.679 398.097 639.009 395.992 636.903C393.887 634.797 392.217 632.297 391.077 629.546C389.938 626.795 389.352 623.847 389.352 620.869V612.596C389.414 606.623 391.83 600.915 396.075 596.713C400.321 592.511 406.053 590.154 412.026 590.154C418 590.154 423.732 592.511 427.978 596.713C432.223 600.915 434.639 606.623 434.701 612.596V620.869C434.701 626.883 432.312 632.65 428.06 636.902C423.808 641.155 418.041 643.544 412.028 643.545" fill="#92C110"/>
<path fill-rule="evenodd" clip-rule="evenodd" d="M436.305 705.715H369.619C368.605 705.715 367.6 705.515 366.663 705.127C365.726 704.738 364.875 704.169 364.158 703.452C363.441 702.735 362.872 701.883 362.484 700.946C362.096 700.009 361.897 699.004 361.897 697.99V648.259C361.897 647.245 362.096 646.241 362.484 645.303C362.872 644.366 363.441 643.515 364.158 642.797C364.875 642.08 365.726 641.511 366.663 641.123C367.6 640.735 368.605 640.535 369.619 640.535H436.303C437.317 640.535 438.322 640.735 439.259 641.123C440.196 641.511 441.047 642.08 441.764 642.797C442.481 643.515 443.05 644.366 443.438 645.303C443.826 646.241 444.025 647.245 444.025 648.259V697.995C444.025 700.043 443.212 702.007 441.763 703.455C440.315 704.903 438.351 705.717 436.303 705.717" fill="#F2D7AD"/>
</svg>
